<svg xmlns:cc="http://creativecommons.org/ns#" xmlns:dc="http://purl.org/dc/elements/1.1/" xmlns:inkscape="http://www.inkscape.org/namespaces/inkscape" xmlns:rdf="http://www.w3.org/1999/02/22-rdf-syntax-ns#" xmlns:sodipodi="http://sodipodi.sourceforge.net/DTD/sodipodi-0.dtd" xmlns:svg="http://www.w3.org/2000/svg" xmlns="http://www.w3.org/2000/svg" xmlns:xlink="http://www.w3.org/1999/xlink" id="svg2" inkscape:export-filename="C:\Users\alex\sites\madero-logo-0.png" x="0px" y="0px" width="700px" height="700px" viewBox="0 0 700 700" xml:space="preserve"><g id="Z&#xC9;2">	<g>		<path fill="#1B1A1B" d="M399.5,322.4c0.1,0.2,0.3,0.4,0.4,0.7c0.5,1.5,1.7,1.9,2.8,0.8c0.8-0.8,1.4-1.8,2-2.7   c-0.6-0.2-1.1-0.3-1.2-0.5c-0.2-0.3-0.1-0.7-0.2-1.3c0.6,0.3,0.8,0.5,1.1,0.7c0-0.3,0-0.6-0.1-0.8c-0.5-1,0-1.7,0.9-2.1   c2.4-1.1,4.1-3.1,6.1-4.8c0.6-0.5,1.1-1,2-0.8c0.8,0.2,1.1-0.2,1.5-0.9c0.4-0.8,1-1.7,1.8-2.2c3.7-2.6,7.4-5.1,11.1-7.7   c0.3-0.2,0.4-0.6,0.7-0.8c-0.3-0.2-0.7-0.5-1-0.5c-1.3-0.1-2.6-0.2-3.9-0.1c-5.7,0.4-11.5,1-17.2,1.4c-4.8,0.4-9.5,0.7-14.3,1.2   c-1.9,0.2-3.8,0.9-5.6,1.6c-0.3,0.1-0.4,1.1-0.5,1.6c0.1,0.1,0.2,0.3,0.3,0.4c-1.5,0-3,0.2-4.3-0.1c-1.3-0.3-2.5-1.1-3.5-1.8   c-2.5-1.8-4.9-3.7-7.3-5.5c-0.6-0.5-1.2-1.1-1.7-1.7c-0.9-1.1-1.8-2.2-2.6-3.4c-0.7-1-1.3-2-2-3c-0.3-0.5-0.7-1.1-1.2-1.3   c-1.4-0.6-1.9-1.7-2.2-3.1c-0.2-1.1-0.3-2,0.5-2.8c-0.9-2-0.9-2.3,0.7-3.9c0.4-0.4,0.6-0.9,1-1.3c0.4-0.4,0.9-0.7,1.5-0.8   c1.2-0.1,2.4,0,3.6-0.1c0.6,0,1.1-0.2,1.7-0.2c-0.1-2-0.1-2,1.9-2.3c4.2-0.5,8.4-1.2,12.7-0.6c1.5,0.2,2.8-0.5,4-1.3   c0.4-0.3,1.1-0.4,1.6-0.6c0.2-0.1,0.4,0,0.6,0c3.1-0.7,6.1-1.4,9.3-2.1c-0.4-0.5-0.7-1-1.1-1.5c3.3-1.4,6.7-0.9,10.4-0.6   c-0.8,0.4-1.3,0.6-1.8,0.8c0.8,0.8,3.4,0.8,4.6,0c-0.4-0.3-0.7-0.6-1-0.8c0.9-1.8,3.1-0.2,4.3-1.8c-0.6-0.3-1.1-0.6-1.6-0.8   c-0.5-0.2-1-0.3-1.5-0.5c0-0.1,0-0.2,0-0.3c0.3-0.1,0.6-0.3,1-0.4c2-0.4,4.1-0.9,6.1-1c1.5-0.1,3,0.4,4.5,0.6   c0.9,0.2,1.8,0.4,2.8,0.6c0.3,0.1,0.6,0.1,0.9,0c3.7-1.5,7.3-1,10.9,0.1c3.5,1.1,7.1,1.8,10.9,1.8c1.5,0,3,0.6,4.4,1.2   c4.7,2,8.9,4.8,12.3,8.8c0.9,1,2.1,1.8,3.2,2.6c2.8,2.2,4.7,5.1,6.8,7.8c0.8,1.1,1.4,2.3,2.1,3.4c1,1.5,2,3,3,4.5   c0.4,0.7,0.8,1.3,1.2,2c0.7,1.1,1.2,2.3,2,3.3c1.7,2.1,1.5,4.4,1,6.8c-0.8,4.5-3.2,7.9-6.5,10.9c-4.9,4.5-10.2,8.3-15.8,11.9   c-0.6,0.4-1.3,0.6-2,0.8c-2.2,0.5-4.1,1.5-5.7,3.1c-1,0.9-2.1,1.7-3.2,2.5c-2.4,1.7-4.7,3.4-7.2,4.9c-1.6,1-3.4,1.9-5.1,2.8   c-0.5,0.3-1.1,0.5-1.6,0.9c-1.4,1.2-2.8,2.6-4.3,3.8c-1.8,1.4-3.8,2.5-5.8,3.8c-3.4,2.2-6.8,4.5-10.3,6.6c-1.7,1-3.2,2-4.2,3.8   c-0.1,0.2-0.4,0.3-0.6,0.5c-1.3,1-2.6,2-3.9,3c-1.6,1.3-3,3-4.8,3.9c-3.7,2-6.2,5.3-9.4,7.8c-2.5,2-5.1,3.7-7.8,5.4   c-0.5,0.3-1.6,0.1-2.3-0.3c-1.8-1-1.7-1-2.7,0.7c-0.5,0.8-1.2,1.5-2,2.1c-1,0.8-1.3,1.7-1.3,3c0,0.6-0.1,1.2-0.2,1.8   c-0.2,1.1-0.9,1.7-2.1,1.9c-2,0.4-2.7,1.6-2.2,3.5c0.3,1-0.1,1.7-1,1.6c-1.3-0.1-2,0.6-2.7,1.5c-0.7,0.8-1.8,1.5-0.9,2.8   c0.1,0.1-0.3,0.7-0.5,1c-0.6,0.7-1.2,1.3-1.8,1.9c-0.6,0.7-0.3,1.3,0.5,1.5c1.2,0.3,2.4,0.6,3.6,0.8c8,1.4,16.1,0.8,24.1,0.3   c4.1-0.3,8.2-0.5,12.3-0.9c1.9-0.2,3.7-0.9,5.6-1c3.1-0.2,6.1-0.6,9.1-1.5c2.2-0.6,4.6-0.7,6.9-1c0.3,0,0.7-0.1,1-0.2   c2.1-0.7,4.2-0.8,6.4-0.8c1.7,0,3.3-0.7,5-1.2c3-0.9,6-1.9,9-2.9c0.9-0.3,1.2-1,0.9-1.8c-0.2-0.6-0.6-1.2-0.9-1.8   c-1.3-2-2-4.2-2.2-6.7c-0.1-0.9-0.4-1.9-0.8-2.8c-0.6-1.3-0.6-2.6,0-3.9c0.2-0.4,0.3-1.1,0.1-1.5c-0.4-0.9-0.3-1.8-0.2-2.7   c0.2-1.7,0-3.4,0-5.1c0-0.9,0-1.7,0-2.6c0-0.4,0-0.8,0.2-1.1c1.7-2.4,1.5-5.4,2.8-7.9c2.1-4.1,5.1-7.3,9-9.7   c3.3-2.1,6.6-4,9.8-6.1c3.2-2.1,6.9-3.1,10.5-4.4c7.8-2.9,15.8-4.7,24.2-4.2c4.1,0.2,8,1.5,11.8,2.8c0.4,0.1,0.7,0.3,1.1,0.3   c3.5-0.1,5.9,1.9,8,4.3c4.1,4.6,8,9.3,10.3,15.1c0.8,2.2,1.9,4.4,2,6.7c0.1,4.4-0.8,8.6-4,12c-3.1,3.4-6.4,6.6-9.4,10   c-2.4,2.7-5.1,5.1-8.1,7.2c-2.7,1.9-5.3,4.1-7.9,6.1c-0.8,0.6-1.6,0.5-2.5,0.1c-1.2-0.6-1.6-0.6-1.9,0.7c-0.4,1.6-1.3,2.6-3,2.9   c-0.3,0.1-0.6,0.3-0.8,0.6c-0.2,0.3-0.5,0.8-0.4,1.1c0.2,0.3,0.7,0.6,1.1,0.6c2.7,0,5.5,0.3,8.2-0.5c1.4-0.4,3,0,4.4-0.3   c5.9-1.3,11.9-2.7,17.8-4.1c0.3-0.1,0.6-0.1,0.9-0.2c3.8-1.3,7.5-2.6,11.3-3.9c0.9-0.3,1.9-0.4,2.8-0.6c0.8-0.2,1.5-0.4,2.3-0.5   c1.6-0.1,3.3-0.2,4.9-0.2c0.3,0,0.9,0.7,0.8,0.9c-0.7,1.9-0.7,3.9-1.9,5.7c-1,1.5-2.2,2.7-3.8,3.6c-1.3,0.7-2.6,1.5-3.6,2.6   c-0.9,1-2.2,1.7-3.4,2.3c-1.8,1-3.8,1.8-5.7,2.8c-0.7,0.3-1.4,0.7-2.1,1c-1.3,0.5-2.5,1-3.3,2.2c-0.4,0.6-1.2,1-1.8,1.3   c-4,1.8-8,3.5-11.9,5.3c-5,2.4-10.2,2.9-15.7,2.3c-2.6-0.3-5.3-0.1-7.9-0.4c-6.7-0.7-13.1-2.6-18.8-6.3c-1.9-1.2-3.9-1.7-6.3-1.3   c-1.7,0.3-3.2,0.9-4.6,1.8c-2.1,1.3-4.5,1.8-6.9,1.8c-2.6-0.1-4.9,0.5-7,2c-1.4,1-3.1,1.3-4.9,1.5c-2,0.1-4,0.5-6,1   c-1.8,0.4-3.6,1.1-5.4,1.5c-0.9,0.2-1.8,0.1-2.8,0.1c-1.2,0.1-2.4,0.1-3.6,0.2c-1.1,0.2-2.1,0.4-3.2,0.8c-2.7,0.9-5.5,1.1-8.4,1.4   c-1.7,0.1-3.3,0.9-4.5,2.3c-0.6,0.7-1.2,0.6-1.9,0.1c-0.5-0.4-1.1-0.9-1.7-1.1c-0.9-0.4-1.8-0.3-2.4,0.5c-1.2,1.9-3,1.6-4.8,1.3   c-0.7-0.1-1.3-0.4-1.9-0.8c-0.9-0.5-1.5-0.5-2.4,0.1c-0.4,0.3-1.2,0.5-1.7,0.4c-1.5-0.5-3-0.4-4.6-0.1c-4.8,1.1-9.4,0.4-14.1-0.5   c-6.6-1.3-12.4-4.2-17.8-8.2c-0.9-0.7-2.1-1.1-3.1-1.7c-0.7-0.4-1.3-0.8-1.9-1.4c-1.9-1.9-3.8-3.8-5.6-5.8c-2-2.2-4-4.5-5.9-6.8   c-1.4-1.6-2.4-3.5-3.9-5c-3.3-3.4-4.1-7.3-3.1-11.8c0.8-3.3,1.7-6.5,3.5-9.4c0.4-0.6,0.5-1.3,0.8-2c0.2-0.4,0.4-1,0.8-1.2   c1.1-0.8,1.6-1.9,2.2-3.1c1.1-2.5,2.6-4.7,4.4-6.7c2.4-2.6,4.5-5.4,6.8-8c0.8-0.9,1.9-1.5,2.7-2.3c1.6-1.6,3.2-3.3,4.5-5.1   c1.6-2.2,3.9-3.2,6.5-2.3c0.3,0.1,0.6,0.3,0.8,0.3c0.3,0,0.8-0.1,1-0.3c0.1-0.1-0.1-0.6-0.2-0.9c0,0-0.1-0.1-0.1-0.1   c-1.3-1.6-1.3-1.9,0.8-2.5c0.9-0.3,1.9-0.5,2.9-0.6c0.9-0.1,1.3-0.6,1.2-1.5c-0.2-2.5,1.5-3.7,3.2-4.8c1-0.6,1.9-1.1,2.3-2.4   c0.4-1.1,1.6-1.7,2.8-1.7c1.1,0,1.5-0.3,1.4-1.4c-0.1-1.3,0.5-2,1.7-2.6c0.9-0.5,1.6-1.3,2.4-1.8c0.6-0.4,1.2-0.8,1.9-0.9   c1-0.2,1.9-0.6,2.5-1.4c1.5-2.3,3.6-2.8,6.2-2.6c1.4,0.2,1.4,0.1,1.2-1.3C398.5,323.2,398.6,322.6,399.5,322.4z M476.4,388.2   c0.2,0.1,0.4,0.2,0.6,0.3c2-1.1,4-2.1,6-3.2c0.5-0.3,1-0.7,1.6-0.8c2.5-0.7,4.6-2.1,6.6-3.5c0.5-0.3,1-0.6,1.6-0.9   c2.5-1.1,4.9-2.4,6.8-4.3c0.4-0.4,0.9-0.8,1.4-1.2c3.6-3.1,7.2-6.1,9.8-10.1c0.2-0.3,0.3-0.8,0.4-1.2c-0.5-0.1-1-0.4-1.4-0.4   c-0.5,0-1,0.3-1.5,0.4c-1.9,0.6-3.7,1.4-5.6,1.8c-5.6,1-10.4,3.6-14.6,7.3c-0.6,0.6-0.9,1.5-1.3,2.2c-0.2,0.4-0.5,0.9-0.8,1   c-1.2,0.2-1.7,1.1-2.4,1.9c-0.4,0.5-0.8,1.1-1.3,1.4c-3,1.6-4.5,4.4-5.7,7.4C476.2,386.9,476.4,387.6,476.4,388.2z M385.4,305.2   c-0.1-0.6-0.1-1.1-0.3-1.3c-0.8-0.6-1.6-0.7-2.5,0.2C383.5,304.5,384.2,304.8,385.4,305.2z M412.3,315.4c0.1,0.2,0.2,0.3,0.2,0.5   c0.5-0.2,1-0.2,1.4-0.5c0.2-0.1,0.1-0.7,0.1-1.1c-0.1-0.1-0.3-0.1-0.4-0.2C413.3,314.5,412.8,314.9,412.3,315.4z"></path>		<path fill="#1B1A1B" d="M203,429.7c-0.3,0.2-0.5,0.4-0.9,0.6c0-0.8,0-1.4,0-2.4c-1.3,2.1-2.8,3.3-4.9,4.3   c-0.1,0.4-0.1,1.4-0.5,1.5c-1.3,0.5-1.9,1.6-2.7,2.5c-0.1,0.1-0.6,0-0.9,0c0-0.8,0-1.6,0-2.7c-2.2,0.8-4.2,1.5-6.3,2.2   c-0.5-0.7-1.2-0.5-2-0.3c-1.3,0.4-2.6,0.5-3.6,0.7c-0.4-0.6-0.5-1.1-0.8-1.3c-0.4-0.3-0.9-0.6-1.6-1c0.6-0.5,0.9-0.8,1.3-1.1   c-1-0.8-2.6,1-3.4-0.7c-1.5,0.1-1.6-1.5-2.7-1.9c0.1-0.1,0.1-0.2,0.2-0.3c-0.9,0.2-1.9,0.5-2.8,0.5c-0.9,0-1.9-0.2-2.7-0.5   c-0.8-0.4-2-0.1-2.3-1.3c-0.4,0.1-0.8,0.2-1.2,0.2c-1.2-1.2,0.1-2.4,0-3.8c-0.5,0.1-0.9,0.2-1.3,0.4c-0.7,0.4-1.4,0.6-2.1,0.1   c-0.7-0.6-0.9-1.3-0.5-2.2c0.3-0.8,0.6-1.6-0.3-2c-0.9,0.4-1.7,0.7-2.5,1.1c-0.1-0.1-0.2-0.2-0.2-0.3c0.2-0.3,0.3-0.6,0.6-0.8   c0.3-0.3,0.6-0.4,0.9-0.7c0.4-0.4,0.8-0.9,1.2-1.4c-0.7-0.1-1.4-0.5-2-0.3c-2.1,0.9-3.7-0.3-4.9-1.6c-0.9-1-1.2-2.6-0.7-3.9   c0.5-1.3,0.2-2.3-0.7-3.3c-0.6-0.7-1.2-1.4-1.6-2.2c-0.3-0.5-0.3-1.3-0.6-1.8c-1.3-2.3-2.8-4.5-4.1-6.8c-0.9-1.6-1.2-3.4,0.2-5.2   c-0.8-0.5-1.6-1-2.4-1.4c-1.1-0.5-2-1-1.9-2.6c0.1-1.2-0.2-2.4-0.4-3.7c0.5,0,0.8,0,1.1,0c-0.1-0.3-0.2-0.6-0.4-0.9   c-0.2-0.5-0.5-1.1-0.7-1.6c-2.1-0.1-2.1-0.1-1.1-2.1c0.2-0.5,0.4-1,0.5-1.5c0.2-0.7,0.1-1.3-0.7-1.7c-1-0.6-0.9-1.1-0.1-2   c0.6-0.6,1-1.4,0.6-2.3c-0.7-1.6-0.7-3.1,0-4.7c0.1-0.2,0-0.8-0.2-0.9c-1-0.7-2-1.4-3.1-2.1c-0.1-0.1-0.3,0.1-0.4,0.2   c-0.4-1.1-0.7-2.2-1.1-3.4c-0.3,0.3-0.5,0.6-0.9,1.1c0.4,0,0.6,0,0.8,0c0.1,0.8,0.2,1.5,0.3,2.4c-0.1,0.1-0.4,0.2-0.7,0.4   c-1-2.5-1.9-4.9-2.9-7.3c-0.7-1.7-1.6-3.3-2.3-5c-0.2-0.6-0.3-1.2-0.3-1.9c0-3.2,0-6.3,0.1-9.4c-0.2,0.7-0.4,1.4-0.6,2.1   c-0.1,0-0.2,0-0.3,0c-0.1-0.4-0.2-0.8-0.4-1.3c-0.5,2.1-1,4.1-1.5,6.1c-0.1,0.1-0.3,0.1-0.4,0.2c-0.1-0.2-0.2-0.4-0.3-0.6   c-0.4-1.7-1.5-3.1-1.6-4.9c-0.1-2.9-0.2-5.7,1.2-8.4c0.3-0.6,0.3-1.1-0.3-1.4c-0.6-0.4-0.5-0.8-0.1-1.3c0.8-1.2,1.7-2.3,2.5-3.5   c0.2-0.3,0.2-0.7,0.3-1.1c0.1-0.4,0.2-0.8,0.5-1c2.2-1.7,2.7-4.1,3.1-6.7c0.3-1.8,0.8-3.6,1.3-5.3c-1.1-1.7-2.4-3.4-3.4-5.3   c-0.7-1.2-1-2.6-1.3-4c-0.1-0.6,0.4-1.4,0.8-2c0.1-0.1,0.8-0.1,1,0.1c0.7,0.7,1.3,1.5,1.8,2.3c1.6,2.5,3,5.1,6.2,6.2   c-0.4-1.3-1.1-2.6-0.3-3.9c0,0.1-0.1,0.3-0.1,0.4c-1-0.8-1.5-3.4-1.1-4.9c0.4-1.5,0.6-3,0.8-4.5c0.6-3,1-6,1.9-8.8   c0.5-1.8,1.7-3.4,2.7-5.1c0.1-0.1,0.4-0.1,0.5-0.2c-0.1,0.4-0.1,0.9-0.2,1.3c0.1,0,0.2,0.1,0.3,0.1c0.3-0.5,0.5-1.1,0.9-1.9   c-0.5,0.2-0.7,0.4-1,0.5c0.1-0.4,0-0.9,0.2-1.2c0.8-1.5,1.6-3,2.4-4.4c0.1,0.1,0.3,0.1,0.4,0.2c0,0.3,0,0.6,0,0.8   c1.6-1.7,3.5-3.3,5.8-4.3c0.1,0.1,0.1,0.2,0.2,0.3c-1.4,1.4-2.8,2.8-4.2,4.2c-0.5,0.5-1,1-1.5,1.6c-0.1,0.1-0.1,0.3-0.2,0.5   c0.1,0.1,0.3,0.2,0.4,0.3c1.2-1.3,2.3-2.6,3.5-3.9c0.1,0.1,0.2,0.2,0.3,0.2c-0.3,0.4-0.5,0.8-0.8,1.2c-1.2,1.4-2.4,2.7-3.6,4.1   c0.1,0.1,0.2,0.2,0.3,0.3c0.9-1,1.9-2,2.8-3.1c0.4-0.4,0.7-0.9,1.1-1.3c2.1-1.5,3.7-3.5,5.3-5.6c0.3-0.4,0.8-0.5,1.2-0.9   c0.3-0.2,0.5-0.5,0.7-0.8c0.6-1.2,1.4-1.7,2.7-1.6c0.3,0,0.7,0.2,1.1,0.3c0,0.3,0,0.5,0,0.9c0.1-0.1,0.3-0.1,0.3-0.1   c1.8-1.7,3.6-3.4,5.4-5.1c1.6-1.4,3.4-2.3,5.5-2.7c0.1,0.3,0.1,0.6,0.2,0.9c0.9-0.2,1.5-1.6,2.7-0.7c-2.7,2.5-5.4,4.9-8.2,7.5   c0.1,0.2,0.3,0.5,0.5,0.7c-2.3,2.5-4.9,4.8-6.5,8c-0.6-0.1-1,0.5-1.3,1.3c-0.5,1.2-1.3,2.4-1.9,3.5c0.1,0.1,0.2,0.2,0.2,0.2   c1-1,2.1-2.1,3.1-3.1c0.1,0.2,0.3,0.4,0.4,0.5c1.8-1.2,3.5-2.3,5.2-3.4c0.2-0.1,0.5-0.2,0.7-0.4c0.8-1.1,1.6-2.2,2.4-3.3   c1.5-1.9,3.1-3.7,4.8-5.4c0.2-0.2,1,0,1.6,0c0.1-0.5,0.3-1.1,0.4-1.7c0.3-0.8,0.7-1.1,1.5-0.6c0.4,0.2,0.9,0.1,1.3,0.3   c0.3,0.1,0.7,0.5,0.6,0.7c0,0.8-0.2,1.6-0.4,2.4c2.3-0.3,4-1.5,5.7-2.9c1.4-1.2,2.9-2.3,4.5-3.3c1.3-0.8,2.9-0.7,4.4-0.2   c0.3,0.1,0.6,0.6,0.8,0.9c0.1,0.3,0.1,0.7,0.1,1.3c1.3-0.3,2.6-1.2,3.4,0.6c-0.4,0.1-0.9,0.2-1.2,0.4c-0.4,0.3-0.6,0.8-0.9,1.2   c-0.2,0.3-0.5,0.7-0.8,0.9c-1.5,1-3.1,2-4.6,2.9c-0.4,0.2-0.7,0.5-1.2,0.8c0.3,0.7,0.7,1.3,1,2c-0.5,0.4-0.8,1.1-1.7,0.7   c-0.4,0.6-0.9,1.4-1.4,2c0.6,0.6,1.2,1.2,1.8,1.9c1.2,1.4,3,1.5,4.6,1.8c1.1,0.2,2.3,0.3,3.4,0.8c1.5,0.6,2.9,1.5,4.4,2.2   c0.2,0.1,0.5,0.1,0.7,0.1c0.2,0,0.5,0,0.6,0.1c2,2.4,5.2,3.4,6.8,6.1c0.5,0,0.9-1.5,1.3,0.1c1.1-0.5-0.7-2.3,1.2-2.4   c0.4,2.2,1.5,4.2,0.6,6.5c-0.1,0.1-0.1,0.3-0.1,0.4c0.7,1.4,0.7,2.9,0.1,4.5c0.2,0,0.3,0,0.5,0.1c0.3-2,0.6-4,1-6   c0.1,0,0.2,0,0.2,0c0,2.2,0,4.3,0,6.6c0.4,0.3,1.1,0.8,1.8,1.3c0.1,0.1,0.3,0.2,0.5,0.2c2.4,0.2,3.7,1.4,3.8,3.8c0,0.3,0,0.7,0,1   c-0.2,1.2,0.1,1.7,1.3,1.4c0.8-0.2,0.9,0.1,1.2,0.6c0.2,0.4,0.7,0.6,1,0.9c1.2,1.4,2.6,2.7,3.6,4.2c1,1.4,1.6,3.1,2.3,4.7   c1,2.1,1.9,4.2,2.8,6.3c0.1,0.1,0,0.3-0.2,0.6c-0.4-0.9-0.9-1.9-1.3-2.8c-0.1-0.3-0.1-0.8-0.7-0.4c-0.1-0.2-0.2-0.4-0.2-0.6   c0.1-0.3,0.2-0.6,0.4-1.1c-0.6,0.2-0.8,0.3-1.1,0.5c-0.1-0.1-0.3-0.2-0.4-0.3c0.1,0.5,0.1,1,0.3,1.4c1,3.4,2.3,6.8,3.1,10.3   c0.5,2.1,0.4,4.4,0.7,6.7c0.1,0.8,0.4,1.5-0.7,2.1c-0.1-1.1-0.1-2.2-0.1-3c-0.2,3.5-0.4,7.1-0.7,10.8c-0.1,0.7,0,1.8-1.2,2.1   c-0.2,0.1-0.3,0.8-0.5,1.3c-0.5-0.2-0.9-0.4-1.3-0.6c-0.2,1.9-0.4,3.7-0.6,5.5c-0.3,2-0.6,4.1-1,6.1c-0.1,0.5-0.4,1-0.8,1.2   c-0.9,0.4-0.8,1-0.7,1.7c0.3,1.7,0.5,3.3,0.6,5c0,0.3-0.2,0.9-0.5,1c-1.8,1-1.7,2.9-2,4.5c-0.3,1.5-0.6,2.9-0.8,4.4   c-0.1,0.4,0.4,0.9,0.6,1.4c0.4,0.6,0.4,2.6-0.1,2.9c-1.4,1-2.1,2.5-3.3,3.7c-1.5,1.4-2.3,3.3-3,5.2c-0.1,0.4,0.1,0.8,0.1,1.3   c0,1.4,0.1,2.9,0,4.3c0,0.3-0.4,0.7-0.7,1c-0.3,0.2-0.7,0.3-1,0.4c-0.1,1.7-0.3,3.4-0.4,5c-0.1,1.1-0.5,1.8-1.5,2.1   c-0.9,0.3-1.7,0.8-1.9,1.9c-0.1,0.7-0.6,1.3-1,1.9c-0.9,1.4-2,2.8-1.6,4.7c-0.2-0.3-0.4-0.6-0.5-0.7c-0.5,1.5-1.1,3.1-1.7,4.5   c-0.1,0,0.1,0,0.2-0.1c0.2,0.4,0.4,0.9,0.7,1.5c-0.5,0.4-1.1,0.9-1.8,1.4c-0.5,0.4-1,0.8-1.6,1.3c-0.1-0.1-0.4-0.3-0.6-0.5   c-0.2,0.8,0.1,1.8-1.1,1.9C203.2,430.2,203.1,429.9,203,429.7c0,0,0.1-0.1,0.1-0.1C203,429.7,203,429.7,203,429.7z M182.6,332.6   c-0.1-0.1-0.2-0.2-0.3-0.3c0,0,0-0.1,0-0.1c0,0,0,0,0,0c-4.7,0.2-9.5,0.4-14.2,0.5c-0.1,0-0.3-0.1-0.4-0.2c0-0.1,0-0.2,0-0.4   c2.3,0,4.5,0,6.8,0c0-0.2,0-0.3,0-0.5c-2.5-0.3-5-0.5-7.5-0.8c-2.8-0.4-5.7-0.3-8.3-1.6c-0.2-0.1-0.4-0.1-0.6,0   c-1.3,0.2-2.2-0.3-3.3-1.4c0.9,0.1,1.5,0.1,2,0.2c-0.2-0.1-0.5-0.3-0.9-0.4c-1.8-0.5-3.6-0.9-5.4-1.3c-0.2,0-0.4,0-0.5,0.1   c-0.9,1.1-1.9,2.2-2.8,3.3c-0.8,1.1-1.5,2.3-2.4,3.2c-0.7,0.7-0.8,1.4-0.7,2.2c0.2,1.6,0.2,3.3,0.5,4.9c0.4,2.6,1,5.2,1.4,7.6   c2-0.6,3.9-1.1,5.8-1.8c3.5-1.4,7.1-2.1,10.7-2.2c2,0,4,0.3,6,0.5c0.1,0,0.2,0.3,0.3,0.5c0,0-0.1,0-0.1,0c0,0,0.1,0.1,0,0   c1.6,0.3,3.1,0.5,4.5,0.8c0,0.1,0,0.3-0.1,0.4c-0.6,0-1.1,0-1.7,0c0.2,0.1,0.3,0.3,0.4,0.4c-0.2,0.1-0.4,0.2-0.4,0.2   c1,0.3,2.2,0.8,3.6,1.3c-2.4,1-4.6,0.5-6.8,0.6c-2.2,0.1-4.4,0.1-6.7,0.3c-2.1,0.2-4.3,0.6-6.6,0.9c1.5,0,2.7,0,4,0   c4,0.1,8,0.3,11.8,1.5c2.6,0.8,5,2.1,7.5,3.2c0.4,0.2,0.8,0.4,1.1,0.4c1.8,0,3.7,0,5.5,0c0.3-1.2,1.1-1.9,2.1-2.3   c2.3-0.9,4.6-1.9,7-2.6c5.5-1.6,11.1-2.4,16.7-2.7c2.8-0.2,5.5-0.3,8.2,1c1.3,0.6,1.9,1.6,2.2,2.9c0.1,0.4,0.1,0.8,0.2,1.1   c0.1,0.3,0.3,0.6,0.4,0.9c0.1,0,0.2-0.1,0.3-0.1c-0.4-4.2-0.7-8.5-1.1-12.7c-0.1-1.6-0.2-3.2-0.7-4.7c-0.7-2.5-1.8-4.8-2.6-7.3   c-0.7-1.9-1.9-3.2-4.1-3.3c-0.1,0-0.4,0-0.4-0.1c-0.7-1.3-1.5-0.6-2.2-0.2c-3,1.9-6.4,2.6-9.8,3.3c-5.3,1.1-10.6,2.5-16,3.8   c0.5,0.1,0.8,0.1,1.2,0.1c-0.4,0.3-0.7,0.5-1.1,0.5C184.5,332.7,183.6,332.2,182.6,332.6z M144.8,373.4c0.2,1.1,0.4,1.9,0.5,2.7   c0.2,0.8,0.2,1.8,0.6,2.4c2.4,4,4.9,7.9,7.4,11.8c0.3,0.4,0.8,0.7,1.3,0.8c0.8,0.1,1.6,0.1,2.5,0.1c0.7,0,1.4,0.2,2,0   c4-1.2,7.9-3,12.3-2c-0.1-0.4-0.2-0.7-0.4-1.4c1.1,0.5,2,0.8,2.9,1.3c1.3,0.6,2.6,1.6,4,1.8c1.7,0.3,3.5,0.8,5.3,0.1   c0.3-0.1,0.7,0.2,1.1,0.3c0.7,0.2,1.4,0.6,2.1,0.5c2-0.2,3.5-1.1,4.1-3.2c0.5-1.6,1.8-2.6,3.3-2.7c0.9,0,2,0,3.1,0.7   c2.4,1.6,5.2,2.7,7.3,4.8c1.1-1.2,1.2-3.1,3-3.6c0.1,0,0.1-0.2,0.2-0.3c0.3-0.5,0.6-1,0.9-1.4c1.7,0.3,2.1-1,2.6-1.6   c1.4-0.3,2.5-0.5,3.6-0.7c0.7-2.4,1.5-5,2.3-7.7c0.3-1.1,1-2.2,1-3.3c0.1-1.1-0.3-2.2-0.4-2.9c-0.8,1.1-1.8,2.6-3.1,3.9   c-3.6,3.5-7.5,6.5-13,5.3c-1.9-0.4-4-0.7-5.7-1.6c-2.2-1.2-4.6-2.5-6-4.8c-0.1-0.1-0.2-0.2-0.3-0.3c-2.9-2.7-4.7-5.9-5.3-9.8   c0-0.3,0.1-0.6,0.3-1.1c0.6,1.9,1.1,3.5,1.5,5.1c0.1,0,0.3-0.1,0.4-0.1c-0.3-2.2-1.2-4.2-0.6-6.4c-2.4-0.1-4.7-0.3-6.9-1.7   c-0.2,0.7-0.5,1.3-0.5,1.8c-0.1,2.8,0.1,5.6-0.4,8.3c-0.5,3.4-2.3,6.4-5.2,8.1c-4.5,2.6-9.3,4.5-14.6,4.1   c-2.6-0.2-5.2-0.8-7.2-2.7c-0.6-0.5-1.3-0.9-1.9-1.3c-0.9-0.7-1.9-1.5-2.8-2.2c-0.2-0.2-0.4-0.5-0.6-0.7   C145.5,373.7,145.2,373.6,144.8,373.4z M159.7,352.6c-3,0.3-6,0.3-8.8,1.3c-3.9,1.4-5.9,4.4-3.8,8.5c0.2,0.3,0.2,0.7,0.2,1.1   c0.1,1,0.1,2,0.3,2.9c1.4,6.9,8.6,11.7,15.4,10c5.9-1.5,9.8-5.3,11.8-11c1.8-5.2-0.2-9.5-5.5-11.1   C166.2,353.4,162.9,353.2,159.7,352.6z M189.6,356c0.1,0.6,0.2,1,0.1,1.3c0,1-0.3,2-0.2,3c0.5,3.6,2.2,6.7,4.2,9.7   c2.2,3.5,7.3,6,12.1,4.8c4.6-1.2,7.9-4.2,10.2-8.2c1.3-2.2,2-4.6,1.8-7.2c-0.1-0.9,0.1-1.9,0-2.8c0-0.8,0-1.7-0.3-2.5   c-1.1-2.8-4.1-3.4-6.5-3.1c-2.4,0.3-4.8,0.7-7.2,1.1c-3.2,0.5-6.4,1-9.5,1.6C192.4,353.9,190.7,354.7,189.6,356z M184.2,404   c0,0.1-0.1,0.2-0.1,0.3c-0.9-0.7-1.8-1.2-3-1c-0.3,0-0.6-0.1-0.8-0.2c-0.9-0.6-1.5-0.4-2,0.4c-0.8,1.3-2,2.1-3.5,2.1   c-2,0-4,0-6-0.2c-1.1-0.1-2,0.1-2.7,1c-0.4,0.5-0.8,1.1-0.9,1.7c-0.1,0.8-0.6,1.9,0.4,2.3c1,0.4,1.3,1,1.7,1.8   c1,2.2,2.1,4.4,4.1,6c1.1,0.8,2.3,1.2,3.6,0.5c0.8-0.4,1.6-0.8,2.1-1.4c1.8-1.8,4.3-2.2,6.6-2.9c0.5-0.1,1.2-0.1,1.6,0.2   c0.7,0.4,1.3,1,2.2,0.6c0.1-0.1,0.4,0.3,0.7,0.5c0.9,0.7,1.8,1.4,2.8,1.9c0.7,0.4,1.4,0.4,1.8-0.6c1.5-3.7,4.2-6.5,6.8-9.3   c0.4-0.5,1-1.3,1.9-0.4c0.1,0.1,0.5,0,0.7-0.1c2.2-1.5,4-3.7,2.9-6.6c-0.4-1-0.6-1.1-1.6-0.5c-1.4,0.8-2.7,1.8-4.5,1.3   c-0.4-0.1-1,0-1.4,0.1c-0.8,0.2-1.5,1-2.5,0.3c-0.2-0.1-0.6,0-0.9,0.2c-1.5,0.8-2.9,1.7-4.6,1.8c-1.2,0.1-2.4,0.2-3.6,0.2   C185.3,404,184.8,404,184.2,404z M190.1,289.7c0.8,0.7,1.3,1.3,1.9,1.7c1.8,1.5,3.9,2.6,5.7,4.1c0.8,0.7,1.9,1.1,2.7,1.8   c0.9,0.7,1.8,0.7,2.7,0.5c0.9-0.3,1-0.7,0.3-1.3c-0.9-0.7-1.8-1.3-2.7-1.9c-0.4-0.3-0.8-0.7-1.3-1c-0.7-0.3-1.4-0.5-2.1-0.8   c-0.9-0.4-1.8-1-2.8-1.4c-1.1-0.6-2.3-1.1-3.4-1.6C190.9,289.8,190.6,289.8,190.1,289.7z M210.6,296.6c-0.6,1.7-0.6,2.2,0.3,2.4   c0.2-0.9,0.4-1.9,0.6-2.8c0-0.2-0.1-0.6-0.2-0.7c-1.1-0.9-2.1-1.8-3.3-2.5c-1.5-0.9-3.2-1.7-4.8-2.5c-0.2-0.1-0.5,0-1,0   c1.7,1.5,3.2,2.7,4.6,3.9c0.3-0.2,0.6-0.6,1.1-1C208.2,295.1,208.8,296.4,210.6,296.6z M183.1,292.4c2,3.3,6,6.8,8.8,8   C189.8,297.2,186.4,294.9,183.1,292.4z M159.1,301.1c0.1,0,0.2,0,0.2,0c0.2-1,0.4-2.1,0.7-3.1c0.5-2,0.8-4,1.9-5.8   c1-1.7,1.9-3.5,2.8-5.2c-0.1,0-0.2-0.1-0.2-0.1c-0.6,1-1.2,2.1-1.8,3.1c-1.2,2.3-2.5,4.6-3.5,7   C158.9,298.2,159.2,299.7,159.1,301.1z M176.4,274.3c-2.4,2.8-5.2,5.2-6.8,8.7c0.5-0.2,0.9-0.5,1.3-0.8c1-0.7,1.3-1.9,1.9-2.9   C173.9,277.5,175.2,276,176.4,274.3z M181.3,296.8c-0.3-0.2-0.3-0.2-0.3-0.2c-0.5-1.2-1-2.3-1.6-3.7   C179,295.5,179.3,296.2,181.3,296.8z M228,334.3c0.1-1.6-0.3-3.8-1-6C227.4,330.5,227.7,332.7,228,334.3z M196.6,309.5   c0-0.1,0-0.3,0-0.4c-0.9-0.1-1.9-0.3-2.8-0.4c0,0.1-0.1,0.3-0.1,0.4c0.5,0.2,0.9,0.5,1.4,0.5C195.5,309.6,196.1,309.5,196.6,309.5   z M166.5,395.1c0,0.1,0.1,0.2,0.1,0.3c0.9-0.3,1.8-0.6,2.6-0.8c0-0.1,0-0.1-0.1-0.2C168.2,394.6,167.3,394.8,166.5,395.1z    M230.2,323.6c0.1-0.1,0.2-0.1,0.3-0.2c-0.2-0.2-0.3-0.3-0.5-0.5c0,0-0.1,0.1-0.1,0.1C230,323.2,230.1,323.4,230.2,323.6z    M230.4,324.1c0.1,0,0.1,0,0.2-0.1c-0.1-0.1-0.1-0.2-0.2-0.3c0,0-0.1,0-0.1,0C230.4,323.8,230.4,323.9,230.4,324.1z"></path>		<path fill="#1B1A1B" d="M536.5,280.6c0.1,0.3,0.2,0.6,0.2,0.7c1.3,0,2.4,0,3.6,0c1,0,1.9-0.2,2.7-0.8c1.1-0.8,2.5-0.9,3.8-0.6   c1.3,0.3,2.5,0.1,3.6-0.7c0.6-0.4,1.3-0.7,2-0.6c3.3,0.2,6.5,0,9.8-0.7c0.1,0,0.2-0.1,0.2-0.1c2.4,0.7,4.6-0.7,7.1-0.4   c2.3,0.3,4.7,0.1,7.1,0.1c0.8,0,1.4,0.4,1.8,1.1c0.2,0.5,0.5,0.9,0.8,1.4c0.4,0.6,0.2,1-0.5,1.2c-1.1,0.2-1.5,0.8-1.6,1.9   c0,0.4-0.4,0.9-0.7,1.3c-0.5,0.7-0.8,1.2-0.7,2.3c0.1,1-0.2,2.6-1.5,3.1c-2,0.8-3,2.6-4.4,4.1c0,0.1-0.1,0.1-0.1,0.2   c-0.1,1.8-1.6,2-2.8,2.5c-1.2,0.5-2.3,1.1-3.5,1.5c-0.9,0.3-1.9,0.5-2.8,0.9c-1,0.4-1.9,1-2.8,1.5c-0.8,0.5-1.5,1.2-2.3,1.7   c-0.4,0.3-1,0.5-1.3,0.8c-2.8,2.5-6.1,4.1-9.7,5.4c-3.5,1.3-7.1,2.6-10.1,5c-0.9,0.7-1.5,1.6-1.4,2.8c0.1,0.9-0.4,1.2-1.2,1.2   c-1.5,0.1-3.1,0.4-4.6,0.4c-0.9,0-1.9-0.2-2.6-0.8c-2.5-2-5-4.1-7.2-6.3c-1.5-1.5-2.8-3.3-4.1-5c-2.2-2.8-4.3-5.7-6.6-8.5   c-1.9-2.2-1.4-4.6-1-7.1c0-0.2,0.3-0.3,0.4-0.5c1.3-1.3,3-2.1,3.9-3.9c0.2-0.4,1.1-0.6,1.7-0.7c3.8-0.6,7.7-1.2,11.6-1.8   c2.5-0.4,5-0.6,7.6-1c0.5-0.1,1.1-0.1,1.4-0.4C533.5,280.7,535,281,536.5,280.6z"></path>		<path display="none" fill="#1B1A1B" d="M696.2,377c1.9,0.8,3.1,2,3.3,4.1c0.2,3.3-1.7,5.7-5.2,5.9c-3,0.2-6,0.2-9,0.1   c-1.6,0-2.3-0.8-2.3-2.4c0-4.9,0-9.7,0-14.6c0-1.7,0.7-2.5,2.3-2.5c3,0,5.9,0,8.9,0.2c1.5,0.1,2.8,0.7,3.8,1.8   C699.5,371.3,699.7,375.2,696.2,377z M687.9,379.2c0,1.3,0,2.6,0,3.9c1.7,0,3.4,0.1,5,0c1.2-0.1,1.7-0.7,1.8-1.8   c0.1-1.2-0.4-1.9-1.6-2C691.4,379.1,689.7,379.2,687.9,379.2z M687.9,375.1c1.7,0,3.3,0.1,4.8,0c1-0.1,1.5-0.7,1.5-1.7   c0-1-0.6-1.7-1.6-1.8c-1.6-0.1-3.1,0-4.7,0C687.9,372.8,687.9,373.9,687.9,375.1z"></path>		<path display="none" fill="#1B1A1B" d="M655.9,377c2.2,0.9,3.3,2.5,3.3,4.8c0,2.8-2,4.9-5.2,5.2c-3,0.2-6.1,0.2-9.1,0.1   c-1.6,0-2.2-0.8-2.2-2.4c0-4.9,0-9.9,0-14.8c0-1.3,0.5-2.2,1.6-2.2c3.5,0,7-0.1,10.5,0.3c2.1,0.2,3.6,1.7,4,3.9   C659,374.2,658,375.9,655.9,377z M647.6,383.1c1.7,0,3.4,0.1,5,0c1.2-0.1,1.8-0.7,1.8-1.9c0-1.2-0.4-1.9-1.7-2   c-1.7-0.1-3.4,0-5.2,0C647.6,380.5,647.6,381.8,647.6,383.1z M647.6,375.1c1.6,0,3.3,0.1,4.9,0c1-0.1,1.4-0.8,1.4-1.7   c0-0.9-0.6-1.6-1.5-1.7c-1.6-0.1-3.2,0-4.8,0C647.6,372.8,647.6,374,647.6,375.1z"></path>		<path display="none" fill="#1B1A1B" d="M716.1,377.3c0-2.4,0-4.9,0-7.3c0-1.5,0.6-2.3,2-2.3c3,0,6.1-0.1,9,0.3   c5.3,0.9,7.8,5.4,7.2,10.5c-0.6,5.4-3.7,8.2-9.2,8.5c-2.2,0.1-4.4,0.1-6.5,0.1c-1.9,0-2.5-0.7-2.5-2.6   C716.1,382.1,716.1,379.7,716.1,377.3z M721.3,371.7c0,3.8,0,7.5,0,11.3c2.6-0.1,5.5,0.5,7.2-2.2c1.3-2.2,1.3-4.6,0-6.8   C726.9,371.2,724,371.9,721.3,371.7z"></path>		<path display="none" fill="#1B1A1B" d="M590,377.3c0-2.5,0-4.9,0-7.4c0-1.4,0.6-2.2,2-2.2c2.9,0,5.9-0.2,8.8,0.3   c5.1,0.8,7.9,4.9,7.5,10c-0.5,5.9-3.8,9-10.3,9.1c-1.8,0.1-3.6,0-5.4,0c-1.9,0-2.6-0.7-2.6-2.6C590,382.1,590,379.7,590,377.3z    M595.2,383c2.7-0.1,5.6,0.6,7.3-2.3c1.3-2.2,1.3-4.8-0.1-7c-1.7-2.6-4.5-1.9-7.1-2C595.2,375.5,595.2,379.1,595.2,383z"></path>		<path display="none" fill="#1B1A1B" d="M590,345.9c0-2.4,0-4.8,0-7.2c0-1.7,0.7-2.4,2.4-2.4c2.7,0,5.5-0.1,8.1,0.2   c5.2,0.8,8.2,4.9,7.8,10.2c-0.5,5.7-3.9,8.9-9.7,9c-2.1,0-4.1,0-6.2,0c-1.7,0-2.4-0.8-2.4-2.4C590,350.8,590,348.4,590,345.9z    M595.2,340.4c0,3.8,0,7.5,0,11.2c2.6-0.1,5.5,0.6,7.1-2.1c1.4-2.2,1.4-4.7,0.1-7C600.7,339.8,597.8,340.5,595.2,340.4z"></path>		<path display="none" fill="#1B1A1B" d="M716.5,347.9c2.3,1.1,3.4,3.2,4.5,5.2c0.6,1,0.1,1.9-0.9,2.5c-1.2,0.7-2.6,0.5-3.5-0.6   c-1.1-1.5-2.3-3-3.2-4.7c-1-1.7-2.3-2.2-4.2-1.7c0,1.5,0,3,0,4.6c0,1.8-0.8,2.7-2.4,2.7c-1.6,0-2.6-0.9-2.6-2.6   c0-4.9,0-9.7,0-14.6c0-1.7,0.8-2.4,2.4-2.4c2.5,0,4.9,0,7.4,0c0.5,0,1.1,0,1.6,0.1c3.1,0.5,4.7,2.2,5.1,5.2   C721,344.5,719.5,346.7,716.5,347.9z M709.3,344.5c1.6,0,3.1,0.1,4.7,0c1.4-0.1,1.9-0.8,1.9-2c0-1.3-0.5-2-1.8-2.1   c-1.6-0.2-3.2,0-4.8,0C709.3,341.7,709.3,343.1,709.3,344.5z"></path>		<path display="none" fill="#1B1A1B" d="M690.1,340.2c0,1.2,0,2.3,0,3.6c1.5,0,3.1,0,4.7,0c0.8,0,1.5,0,2.3,0.1   c1.3,0.2,1.8,0.7,1.8,1.9c0,1.2-0.5,1.8-1.8,1.9c-1.8,0.1-3.7,0.1-5.5,0.1c-0.4,0-0.9,0-1.4,0c0,1.3,0,2.6,0,3.9c2,0,4,0,6.1,0   c0.6,0,1.1,0,1.7,0.1c1.1,0.2,1.6,0.9,1.5,1.9c0,1-0.5,1.6-1.5,1.8c-0.3,0.1-0.7,0.1-1,0.1c-3.1,0-6.3,0-9.4,0   c-1.7,0-2.4-0.7-2.4-2.4c0-4.9,0-9.7,0-14.6c0-1.8,0.7-2.5,2.5-2.5c3.2,0,6.3,0,9.5,0c0.9,0,1.7,0.1,2.1,1   c0.7,1.4-0.1,2.9-1.8,2.9c-2,0.1-4.1,0-6.1,0C690.9,340.2,690.5,340.2,690.1,340.2z"></path>		<path display="none" fill="#1B1A1B" d="M768.7,387.3c-2.2-0.1-4.4-0.4-6.3-1.6c-0.6-0.4-1.1-1.1-1.2-1.7c0-0.7,0.4-1.6,0.9-2   c0.4-0.3,1.4-0.2,2,0.1c1.7,0.9,3.6,1.4,5.5,1.3c1.6-0.1,2.6-0.6,2.7-1.5c0.1-0.9-0.4-1.4-2.2-1.9c-1.7-0.5-3.4-0.9-5.1-1.4   c-4.6-1.6-4.1-7-1.3-9.2c3.1-2.5,9.3-2.6,12.4-0.1c1,0.8,1.3,2.1,0.6,3.1c-0.6,0.9-1.4,1-2.7,0.3c-1.5-0.9-3.2-1.4-5-1.2   c-0.6,0.1-1.3,0.3-1.8,0.6c-1,0.7-0.9,2,0.2,2.4c1.1,0.4,2.2,0.7,3.3,1c1.2,0.4,2.5,0.7,3.6,1.2c4.2,1.9,3.6,6.9,0.9,8.9   C773.4,387.1,771.1,387.4,768.7,387.3z"></path>		<path display="none" fill="#1B1A1B" d="M617.8,371.6c0,1.3,0,2.4,0,3.6c2.2,0,4.3,0,6.5,0c0.9,0,1.7,0.2,2.1,1   c0.7,1.4-0.2,2.8-1.8,2.8c-2.2,0-4.4,0-6.7,0c0,1.3,0,2.6,0,4c2.4,0,4.7,0,7.1,0c1.4,0,2.1,0.7,2.1,1.9c0,1.2-0.5,1.9-1.8,2   c-3.5,0.1-6.9,0.1-10.4,0c-1.4,0-2.1-0.8-2.1-2.3c0-4.9,0-9.9,0-14.8c0-1.5,0.7-2.3,2.2-2.3c3.4-0.1,6.7-0.1,10.1,0   c1.5,0,2.1,0.8,2.1,2.1c-0.1,1.2-0.7,1.8-2.2,1.9c-1.2,0-2.3,0-3.5,0C620.1,371.6,619,371.6,617.8,371.6z"></path>		<path display="none" fill="#1B1A1B" d="M668.7,371.6c0,1.3,0,2.4,0,3.6c2.2,0,4.4,0,6.5,0c1.3,0,2.1,0.6,2.2,1.6   c0.2,1.3-0.6,2.2-2,2.3c-2.2,0-4.4,0-6.7,0c0,1.3,0,2.6,0,4c1.6,0,3.2,0,4.8,0c0.8,0,1.6,0,2.4,0c1.3,0,2,0.6,2.1,1.7   c0.1,1.4-0.4,2.1-1.8,2.2c-2.4,0.1-4.8,0.1-7.2,0.1c-1.1,0-2.2,0-3.3-0.1c-1.3-0.1-1.9-0.8-1.9-2c0-5.1,0-10.2,0-15.3   c0-1.4,0.8-2.1,2.4-2.2c1.2-0.1,2.4,0,3.6,0c1.9,0,3.8,0,5.8,0c1,0,2.1,0.1,2.5,1.3c0.4,1.5-0.4,2.6-2,2.6c-2,0.1-3.9,0-5.9,0   C669.6,371.6,669.2,371.6,668.7,371.6z"></path>		<path display="none" fill="#1B1A1B" d="M617.7,340.2c0,1.2,0,2.4,0,3.6c1.9,0,3.7,0,5.5,0c0.6,0,1.2,0.1,1.8,0.2   c1,0.2,1.4,0.8,1.4,1.7c0,1-0.4,1.7-1.4,1.9c-0.8,0.2-1.7,0.2-2.6,0.2c-1.6,0-3.2,0-4.8,0c0,1.3,0,2.5,0,3.9c1.7,0,3.3,0,5,0   c0.7,0,1.4,0,2.1,0c1.5,0.1,2.1,0.8,2.1,2.1c0,1.2-0.7,1.8-2.2,1.9c-1.8,0-3.6,0-5.4,0c-1.4,0-2.9,0-4.3,0c-1.6,0-2.4-0.8-2.4-2.4   c0-4.9,0-9.9,0-14.8c0-1.5,0.7-2.3,2.3-2.3c3.2,0,6.5,0,9.7,0c1.5,0,2.3,0.6,2.3,1.9c0,1.4-0.7,2-2.3,2   C622.5,340.2,620.2,340.2,617.7,340.2z"></path>		<path display="none" fill="#1B1A1B" d="M747.4,367.5c1.2,0,2.1,0.5,2.6,1.6c2.4,4.9,4.8,9.9,7.2,14.8c0.6,1.3,0.2,2.5-1,3.1   c-1.2,0.6-2.5,0.2-3.2-1c0,0,0-0.1-0.1-0.1c-0.5-2.5-2.1-3-4.3-2.7c-1.6,0.2-3.2,0.1-4.9,0c-0.7,0-1.1,0.2-1.3,0.9   c-0.2,0.6-0.5,1.2-0.8,1.8c-0.7,1.3-2,1.7-3.2,1.1c-1.2-0.6-1.6-1.8-1-3.1c1.8-3.7,3.5-7.3,5.3-10.9c0.6-1.2,1.2-2.4,1.8-3.7   C745.1,368,746,367.4,747.4,367.5z M750,379.2c-0.9-2-1.8-3.9-2.7-6c-0.9,2.1-1.8,4-2.7,6C746.5,379.2,748.2,379.2,750,379.2z"></path>		<path display="none" fill="#1B1A1B" d="M670.4,349.1c1.8-3.9,3.5-7.7,5.3-11.4c0.8-1.7,2.5-2.1,3.9-1c0.9,0.7,1.2,1.6,0.7,2.7   c-2.4,4.9-4.8,9.9-7.2,14.8c-0.6,1.2-1.5,1.8-2.8,1.8c-1.2,0-2.2-0.6-2.8-1.8c-2.3-4.7-4.6-9.5-6.9-14.2c-0.8-1.7-0.5-2.9,1-3.6   c1.5-0.7,2.8-0.1,3.6,1.5C666.9,341.5,668.6,345.2,670.4,349.1z"></path>		<path display="none" fill="#1B1A1B" d="M733.4,342.6c1.6-1.9,3.1-3.7,4.6-5.4c1.1-1.3,2.4-1.5,3.5-0.5c1.1,1,1.1,2.2,0,3.6   c-1.6,1.9-3.3,3.7-4.9,5.7c-0.4,0.5-0.6,1.2-0.7,1.8c-0.1,1.9,0,3.8,0,5.8c0,1-0.4,1.8-1.3,2.2c-1,0.4-2.1,0.4-2.9-0.3   c-0.5-0.5-0.8-1.3-0.9-1.9c-0.1-2,0-3.9-0.1-5.9c0-0.5-0.2-1.1-0.6-1.5c-1.6-2-3.3-3.9-5-5.9c-1.1-1.3-1.1-2.6,0.1-3.6   c1.1-0.9,2.4-0.7,3.4,0.6C730.3,339,731.8,340.7,733.4,342.6z"></path>		<path display="none" fill="#1B1A1B" d="M637.1,351.6c2.3,0,4.3,0,6.4,0c1.5,0,2.2,0.6,2.3,1.8c0.1,1.5-0.5,2.3-2,2.4   c-3.2,0.1-6.5,0-9.7,0c-1.3,0-2.1-0.8-2.1-2.2c0-5,0-10,0-14.9c0-1.6,0.9-2.5,2.5-2.5c1.6,0,2.6,0.9,2.6,2.5c0,2.8,0,5.6,0,8.4   C637.1,348.4,637.1,349.9,637.1,351.6z"></path>		<path display="none" fill="#1B1A1B" d="M655.6,346c0,2.4,0,4.8,0,7.2c0,1.7-0.8,2.6-2.4,2.6c-1.6,0.1-2.7-0.8-2.7-2.5   c-0.1-4.9,0-9.9,0-14.8c0-1.7,1-2.5,2.6-2.5c1.6,0,2.5,1,2.5,2.7C655.6,341.2,655.6,343.6,655.6,346z"></path>		<path display="none" fill="#1B1A1B" d="M704.8,377.3c0-2.4,0-4.9,0-7.3c0-1.7,0.9-2.5,2.5-2.5c1.6,0,2.5,0.9,2.5,2.5   c0,4.9,0,9.7,0,14.6c0,1.8-0.9,2.7-2.6,2.7c-1.6,0-2.4-0.9-2.4-2.7C704.8,382.1,704.8,379.7,704.8,377.3z"></path>		<path fill="#1B1A1B" d="M234.4,331.5c1.2,0.8,1.9,3.4,1.2,4.7C235.2,334.7,234.8,333.2,234.4,331.5z"></path>		<path fill="#1B1A1B" d="M233.5,329.9c-0.1-0.2-0.2-0.3-0.2-0.4c0-0.1,0.1-0.1,0.2-0.2c0.1,0.1,0.2,0.2,0.3,0.3   C233.8,329.6,233.7,329.7,233.5,329.9z"></path>		<path fill="#1B1A1B" d="M151.9,277.4c0.2,0,0.3-0.1,0.5-0.1c-0.1,0.1-0.2,0.3-0.3,0.4C152,277.6,152,277.5,151.9,277.4z"></path>		<path fill="#1B1A1B" d="M135.4,367.3c0,0-0.1-0.1-0.1-0.1c0,0,0.1-0.1,0.1-0.1C135.4,367.1,135.4,367.2,135.4,367.3   C135.4,367.2,135.4,367.2,135.4,367.3z"></path>		<path fill="#1B1A1B" d="M151.7,277.5c0.1,0,0.1-0.1,0.2-0.1c0.1,0.1,0.1,0.2,0.2,0.3c-0.1,0-0.1,0.1-0.2,0.1   C151.8,277.7,151.8,277.6,151.7,277.5z"></path>		<path fill="#FEFEFE" d="M476.4,388.2c0-0.6-0.2-1.3,0-1.8c1.2-3,2.7-5.8,5.7-7.4c0.5-0.3,0.9-0.9,1.3-1.4c0.7-0.8,1.2-1.7,2.4-1.9   c0.3,0,0.6-0.6,0.8-1c0.5-0.7,0.7-1.7,1.3-2.2c4.2-3.8,9-6.3,14.6-7.3c1.9-0.4,3.7-1.2,5.6-1.8c0.5-0.2,1-0.4,1.5-0.4   c0.5,0,1,0.2,1.4,0.4c-0.1,0.4-0.2,0.8-0.4,1.2c-2.5,4.1-6.2,7-9.8,10.1c-0.5,0.4-0.9,0.8-1.4,1.2c-2,1.9-4.4,3.1-6.8,4.3   c-0.5,0.3-1.1,0.6-1.6,0.9c-2.1,1.4-4.1,2.8-6.6,3.5c-0.6,0.1-1.1,0.5-1.6,0.8c-2,1.1-4,2.1-6,3.2   C476.8,388.4,476.6,388.3,476.4,388.2z"></path>		<path fill="#FEFEFE" d="M385.4,305.2c-1.2-0.4-1.9-0.7-2.8-1.1c0.9-0.9,1.7-0.8,2.5-0.2C385.3,304.1,385.2,304.6,385.4,305.2z"></path>		<path fill="#FEFEFE" d="M412.3,315.4c0.5-0.4,0.9-0.9,1.4-1.3c0.1,0.1,0.3,0.1,0.4,0.2c0,0.4,0.1,0.9-0.1,1.1   c-0.4,0.3-0.9,0.4-1.4,0.5C412.5,315.7,412.4,315.5,412.3,315.4z"></path>		<path fill="#FEFEFE" d="M182.6,332.6c0.9-0.4,1.9,0.1,2.8-0.1c0.4-0.1,0.7-0.2,1.1-0.5c-0.3,0-0.7-0.1-1.2-0.1   c5.4-1.3,10.7-2.7,16-3.8c3.4-0.7,6.8-1.5,9.8-3.3c0.7-0.4,1.6-1.1,2.2,0.2c0,0.1,0.3,0.1,0.4,0.1c2.2,0,3.4,1.3,4.1,3.3   c0.9,2.4,1.9,4.8,2.6,7.3c0.4,1.5,0.5,3.1,0.7,4.7c0.4,4.2,0.8,8.4,1.1,12.7c-0.1,0-0.2,0.1-0.3,0.1c-0.2-0.3-0.4-0.6-0.4-0.9   c-0.1-0.4-0.1-0.7-0.2-1.1c-0.3-1.3-0.9-2.2-2.2-2.9c-2.6-1.3-5.4-1.2-8.2-1c-5.7,0.4-11.3,1.2-16.7,2.7c-2.4,0.7-4.7,1.7-7,2.6   c-1,0.4-1.8,1.1-2.1,2.3c-1.8,0-3.7,0-5.5,0c-0.4,0-0.8-0.2-1.1-0.4c-2.5-1.1-4.9-2.4-7.5-3.2c-3.8-1.2-7.8-1.4-11.8-1.5   c-1.2,0-2.5,0-4,0c2.4-0.3,4.5-0.7,6.6-0.9c2.2-0.2,4.4-0.2,6.7-0.3c2.2-0.1,4.4,0.4,6.8-0.6c-1.4-0.5-2.6-0.9-3.6-1.3   c0,0,0.2-0.1,0.4-0.2c-0.1-0.1-0.2-0.2-0.4-0.4c0.6,0,1.2,0,1.7,0c0-0.1,0-0.3,0.1-0.4c-1.5-0.2-2.9-0.5-4.5-0.8   c0.1,0.1,0.1,0.1,0,0c0,0,0.1,0,0.1,0c-0.1-0.2-0.2-0.5-0.3-0.5c-2-0.2-4-0.5-6-0.5c-3.7,0.1-7.3,0.8-10.7,2.2   c-1.8,0.7-3.7,1.2-5.8,1.8c-0.5-2.4-1-5-1.4-7.6c-0.3-1.6-0.3-3.3-0.5-4.9c-0.1-0.9,0-1.5,0.7-2.2c0.9-1,1.6-2.2,2.4-3.2   c0.9-1.1,1.8-2.2,2.8-3.3c0.1-0.1,0.3-0.1,0.5-0.1c1.8,0.4,3.6,0.9,5.4,1.3c0.3,0.1,0.7,0.3,0.9,0.4c-0.5,0-1.1-0.1-2-0.2   c1.2,1,2.1,1.6,3.3,1.4c0.2,0,0.5-0.1,0.6,0c2.6,1.3,5.5,1.2,8.3,1.6c2.5,0.3,5,0.5,7.5,0.8c0,0.2,0,0.3,0,0.5c-2.3,0-4.5,0-6.8,0   c0,0.1,0,0.2,0,0.4c0.1,0.1,0.3,0.2,0.4,0.2c4.7-0.2,9.5-0.3,14.2-0.5c0,0,0,0,0,0c0,0,0,0.1,0,0.1c-0.3,0.1-0.5,0.1-0.8,0.2   c0,0.1,0.1,0.2,0.1,0.3C182,332.7,182.3,332.6,182.6,332.6z M218.3,343.1c0.1-0.1,0.2-0.1,0.2-0.2c-0.4-0.5-0.7-1.1-1.2-1.5   c-3-2.6-6.5-4.4-10.4-5.1c-7.1-1.3-13.9-0.3-20.5,2.3c-0.9,0.4-1.7,1.1-2.6,1.6c0.1,0.1,0.1,0.2,0.2,0.2c1.4-0.2,2.7-0.3,4.1-0.5   c0,0.1,0,0.1,0,0.2c-0.4,0.2-0.9,0.5-1.3,0.7c0,0.1,0.1,0.2,0.1,0.3c2-0.5,4-0.6,6.1-0.5c2.9,0.2,5.8-0.2,8.7-0.3   c4.3-0.2,8.3,0.7,12.1,2.7c1.2,0.7,2.6,1,3.9,1.5c0.1-0.1,0.1-0.3,0.2-0.4c-0.6-0.8-1.2-1.6-1.8-2.4c0,0,0.1-0.1,0.1-0.1   C216.8,342.2,217.6,342.7,218.3,343.1z"></path>		<path fill="#FEFEFE" d="M144.8,373.4c0.4,0.2,0.7,0.3,0.9,0.4c0.2,0.2,0.4,0.5,0.6,0.7c0.9,0.7,1.8,1.5,2.8,2.2   c0.6,0.5,1.4,0.8,1.9,1.3c2,1.9,4.5,2.5,7.2,2.7c5.3,0.4,10.1-1.5,14.6-4.1c2.9-1.7,4.7-4.7,5.2-8.1c0.4-2.7,0.2-5.5,0.4-8.3   c0-0.6,0.3-1.1,0.5-1.8c2.2,1.4,4.4,1.7,6.9,1.7c-0.6,2.2,0.3,4.3,0.6,6.4c-0.1,0-0.3,0.1-0.4,0.1c-0.5-1.6-1-3.2-1.5-5.1   c-0.1,0.5-0.3,0.8-0.3,1.1c0.6,3.9,2.4,7.2,5.3,9.8c0.1,0.1,0.3,0.2,0.3,0.3c1.4,2.3,3.7,3.6,6,4.8c1.7,0.9,3.7,1.2,5.7,1.6   c5.5,1.2,9.4-1.8,13-5.3c1.3-1.2,2.2-2.8,3.1-3.9c0.1,0.6,0.5,1.8,0.4,2.9c-0.1,1.1-0.7,2.2-1,3.3c-0.8,2.6-1.6,5.3-2.3,7.7   c-1.2,0.2-2.3,0.4-3.6,0.7c-0.4,0.6-0.9,1.8-2.6,1.6c-0.2,0.4-0.6,0.9-0.9,1.4c-0.1,0.1-0.1,0.3-0.2,0.3c-1.8,0.5-1.9,2.4-3,3.6   c-2.1-2.1-4.9-3.1-7.3-4.8c-1.1-0.8-2.2-0.8-3.1-0.7c-1.5,0.1-2.8,1-3.3,2.7c-0.6,2.1-2.1,3-4.1,3.2c-0.7,0.1-1.4-0.3-2.1-0.5   c-0.4-0.1-0.8-0.4-1.1-0.3c-1.8,0.7-3.6,0.2-5.3-0.1c-1.4-0.3-2.7-1.2-4-1.8c-0.9-0.4-1.8-0.8-2.9-1.3c0.2,0.6,0.3,1,0.4,1.4   c-4.4-1-8.3,0.8-12.3,2c-0.6,0.2-1.4,0-2,0c-0.8,0-1.7,0.1-2.5-0.1c-0.5-0.1-1-0.4-1.3-0.8c-2.5-3.9-5-7.8-7.4-11.8   c-0.4-0.7-0.4-1.6-0.6-2.4C145.2,375.3,145,374.5,144.8,373.4z"></path>		<path fill="#FEFEFE" d="M159.7,352.6c3.2,0.5,6.5,0.8,9.6,1.7c5.2,1.6,7.2,5.9,5.5,11.1c-2,5.7-5.8,9.5-11.8,11   c-6.8,1.7-14-3.1-15.4-10c-0.2-0.9-0.2-1.9-0.3-2.9c0-0.4-0.1-0.8-0.2-1.1c-2.1-4.1-0.1-7.1,3.8-8.5   C153.7,352.9,156.7,352.9,159.7,352.6z"></path>		<path fill="#FEFEFE" d="M189.6,356c1.1-1.3,2.8-2.1,4.7-2.4c3.2-0.6,6.4-1.1,9.5-1.6c2.4-0.4,4.8-0.8,7.2-1.1   c2.4-0.3,5.4,0.3,6.5,3.1c0.3,0.8,0.3,1.6,0.3,2.5c0,0.9-0.1,1.9,0,2.8c0.2,2.6-0.5,5-1.8,7.2c-2.3,4.1-5.6,7-10.2,8.2   c-4.8,1.3-9.8-1.3-12.1-4.8c-1.9-3-3.7-6.1-4.2-9.7c-0.1-1,0.1-2,0.2-3C189.8,357,189.7,356.6,189.6,356z"></path>		<path fill="#FEFEFE" d="M184.2,404c0.6,0,1.1,0,1.7,0c1.2-0.1,2.4-0.1,3.6-0.2c1.7-0.1,3.1-1.1,4.6-1.8c0.3-0.1,0.7-0.3,0.9-0.2   c1,0.7,1.7-0.1,2.5-0.3c0.5-0.1,1-0.3,1.4-0.1c1.8,0.5,3.1-0.5,4.5-1.3c1-0.6,1.2-0.6,1.6,0.5c1.1,2.9-0.6,5.1-2.9,6.6   c-0.2,0.1-0.6,0.2-0.7,0.1c-0.9-0.9-1.4,0-1.9,0.4c-2.6,2.8-5.4,5.6-6.8,9.3c-0.4,1-1.1,1-1.8,0.6c-1-0.6-1.8-1.3-2.8-1.9   c-0.2-0.2-0.5-0.6-0.7-0.5c-0.9,0.4-1.5-0.2-2.2-0.6c-0.4-0.3-1.1-0.3-1.6-0.2c-2.3,0.6-4.8,1-6.6,2.9c-0.6,0.6-1.4,1-2.1,1.4   c-1.3,0.7-2.5,0.4-3.6-0.5c-2-1.5-3-3.8-4.1-6c-0.4-0.8-0.7-1.4-1.7-1.8c-1-0.4-0.5-1.5-0.4-2.3c0.1-0.6,0.5-1.2,0.9-1.7   c0.7-0.9,1.5-1.1,2.7-1c2,0.2,4,0.2,6,0.2c1.5,0,2.7-0.8,3.5-2.1c0.5-0.9,1.2-1.1,2-0.4c0.2,0.2,0.6,0.3,0.8,0.2   c1.2-0.2,2.1,0.3,3,1C184.1,404.2,184.2,404.1,184.2,404z"></path>		<path fill="#FEFEFE" d="M190.1,289.7c0.6,0.1,0.8,0,1,0.1c1.2,0.5,2.3,1,3.4,1.6c0.9,0.5,1.8,1,2.8,1.4c0.7,0.3,1.4,0.5,2.1,0.8   c0.5,0.2,0.9,0.7,1.3,1c0.9,0.6,1.8,1.2,2.7,1.9c0.7,0.6,0.6,1-0.3,1.3c-1,0.3-1.9,0.3-2.7-0.5c-0.8-0.7-1.9-1.1-2.7-1.8   c-1.8-1.5-3.9-2.7-5.7-4.1C191.3,291,190.8,290.5,190.1,289.7z"></path>		<path fill="#FEFEFE" d="M210.6,296.6c-1.8-0.2-2.3-1.5-2.7-3.2c-0.5,0.5-0.9,0.8-1.1,1c-1.4-1.2-2.9-2.5-4.6-3.9   c0.5,0,0.8-0.2,1,0c1.6,0.8,3.2,1.6,4.8,2.5c1.2,0.7,2.2,1.7,3.3,2.5c0.2,0.1,0.3,0.5,0.2,0.7c-0.2,1-0.4,1.9-0.6,2.8   C210,298.8,209.9,298.3,210.6,296.6z"></path>		<path fill="#FEFEFE" d="M183.1,292.4c3.3,2.5,6.7,4.7,8.8,8C189.1,299.3,185.1,295.7,183.1,292.4z"></path>		<path fill="#FEFEFE" d="M159.1,301.1c0.1-1.4-0.2-2.9,0.3-4.1c0.9-2.4,2.3-4.7,3.5-7c0.5-1.1,1.2-2.1,1.8-3.1   c0.1,0,0.2,0.1,0.2,0.1c-0.9,1.7-1.8,3.5-2.8,5.2c-1.1,1.8-1.4,3.8-1.9,5.8c-0.3,1-0.5,2.1-0.7,3.1   C159.3,301.1,159.2,301.1,159.1,301.1z"></path>		<path fill="#FEFEFE" d="M176.4,274.3c-1.2,1.6-2.5,3.2-3.5,4.9c-0.6,1-0.9,2.2-1.9,2.9c-0.4,0.3-0.8,0.6-1.3,0.8   C171.1,279.6,173.9,277.1,176.4,274.3z"></path>		<path fill="#FEFEFE" d="M181.3,296.8c-2-0.6-2.3-1.2-2-3.9c0.6,1.4,1.1,2.6,1.6,3.7C180.9,296.6,181,296.6,181.3,296.8z"></path>		<path fill="#FEFEFE" d="M228,334.3c-0.3-1.6-0.6-3.8-1-6C227.7,330.5,228.1,332.7,228,334.3z"></path>		<path fill="#FEFEFE" d="M196.6,309.5c-0.5,0-1.1,0.2-1.6,0.1c-0.5-0.1-0.9-0.4-1.4-0.5c0-0.1,0.1-0.3,0.1-0.4   c0.9,0.1,1.9,0.3,2.8,0.4C196.6,309.2,196.6,309.3,196.6,309.5z"></path>		<path fill="#FEFEFE" d="M166.5,395.1c0.9-0.3,1.8-0.5,2.7-0.8c0,0.1,0,0.1,0.1,0.2c-0.9,0.3-1.8,0.6-2.6,0.8   C166.5,395.3,166.5,395.2,166.5,395.1z"></path>		<path fill="#FEFEFE" d="M142.9,286.5c0.2-0.1,0.5-0.2,1-0.5c-0.4,0.8-0.6,1.3-0.9,1.9c-0.1,0-0.2-0.1-0.3-0.1   C142.8,287.4,142.9,287,142.9,286.5C143,286.5,142.9,286.5,142.9,286.5z"></path>		<path fill="#FEFEFE" d="M230.2,323.6c-0.1-0.2-0.2-0.4-0.4-0.6c0,0,0.1-0.1,0.1-0.1c0.2,0.2,0.3,0.3,0.5,0.5   C230.4,323.4,230.3,323.5,230.2,323.6z"></path>		<path fill="#FEFEFE" d="M230.4,324.1c0-0.1,0-0.2-0.1-0.3c0,0,0.1,0,0.1,0c0.1,0.1,0.1,0.2,0.2,0.3   C230.6,324,230.5,324,230.4,324.1z"></path>		<path fill="#FEFEFE" d="M203,429.7c0,0,0.1-0.1,0.1-0.1C203,429.7,203,429.7,203,429.7C203,429.7,203,429.7,203,429.7z"></path>		<path fill="#1B1A1B" d="M218.3,343.1c-0.7-0.4-1.4-0.9-2.2-1.3c0,0-0.1,0.1-0.1,0.1c0.6,0.8,1.2,1.6,1.8,2.4   c-0.1,0.1-0.1,0.3-0.2,0.4c-1.3-0.5-2.7-0.8-3.9-1.5c-3.8-2.1-7.8-2.9-12.1-2.7c-2.9,0.1-5.8,0.5-8.7,0.3   c-2.1-0.1-4.1-0.1-6.1,0.5c0-0.1-0.1-0.2-0.1-0.3c0.4-0.2,0.9-0.5,1.3-0.7c0-0.1,0-0.1,0-0.2c-1.4,0.2-2.7,0.3-4.1,0.5   c-0.1-0.1-0.1-0.2-0.2-0.2c0.9-0.6,1.6-1.3,2.6-1.6c6.6-2.6,13.5-3.6,20.5-2.3c3.9,0.7,7.4,2.5,10.4,5.1c0.5,0.4,0.8,1,1.2,1.5   C218.4,343,218.4,343,218.3,343.1z"></path>		<path fill="#1B1A1B" d="M182.6,332.6c-0.3,0.1-0.6,0.2-1,0.2c0-0.1-0.1-0.2-0.1-0.3c0.3-0.1,0.5-0.1,0.8-0.2   C182.5,332.4,182.6,332.5,182.6,332.6z"></path>	</g></g></svg>