<svg id="Layer_1" data-name="Layer 1" xmlns="http://www.w3.org/2000/svg" viewBox="0 0 792 612"><defs><style>.cls-1{fill:#fff;}</style></defs><title>Ze_White_Wordmark</title><g id="FwyP8Y"><path class="cls-1" d="M334.18,278.42a1.26,1.26,0,0,1-.25.31c-1.3.73-4.5-.18-5.61-1.49a10.93,10.93,0,0,0-1.84-1.52c-1.62-1.2-3.26-2.37-4.89-3.57a2.47,2.47,0,0,1-.68-.66c-1.29-2.23-3.41-4-4.46-6.37a4.45,4.45,0,0,0-1.67-1.51,1.52,1.52,0,0,1-.9-1.56c0-.08,0-.18,0-.25-.49-1.11-.62-2.11.36-2.81,0,0-.09-.38-.21-.54a1.45,1.45,0,0,1-.13-1.93c.33-.43.68-.84,1-1.24.14-.16.43-.27.45-.45.16-1.28,1.26-1.06,2.2-1.09h2.22a16.49,16.49,0,0,0,1.7-.28c-.27-1.47-.15-1.76,1.13-1.88,3.71-.34,7.32-1.05,11.22-.63a4.63,4.63,0,0,0,3.68-1.21,1.61,1.61,0,0,1,1.09-.51c1.89.19,3.25-.92,5-1a18.06,18.06,0,0,0,2-.25c.6-.1,1.18-.26,1.88-.43l-1.08-1.27c2.75-1.14,5.74-.79,8.68-.65l.11.3a4.87,4.87,0,0,0-1,.27c-.22.11-.35.35-.52.53.23.14.47.39.68.39a21.36,21.36,0,0,0,2.9-.13c.21,0,.37-.25.63-.43l-1.09-.71a2.16,2.16,0,0,1,1.92-.73,4,4,0,0,0,1.26-.18c.24-.09.57-.43.51-.6a1.53,1.53,0,0,0-.74-.76,10,10,0,0,0-1.34-.28c-.17,0-.32-.25-.48-.39.13-.11.24-.28.4-.31q3-.52,6-1a3.14,3.14,0,0,1,.89.08c.93.14,1.87.28,2.8.45s1.64.38,2.47.53c.34.06.8.15,1,0,1.07-.82,2.51-.62,3.81-.75a11.09,11.09,0,0,1,3.3.21c1.34.28,2.67.81,4,1.19a11.77,11.77,0,0,0,1.34.22c1.37.23,2.75.49,4.12.68a11.19,11.19,0,0,0,1.55,0,6,6,0,0,1,1.89.07,28.61,28.61,0,0,1,7.7,3.68,23.69,23.69,0,0,1,5.4,4.76,5.25,5.25,0,0,0,1.49,1.32,18.12,18.12,0,0,1,4.85,4.61c1.18,1.47,2.31,3,3.46,4.46a1.38,1.38,0,0,1,.24.4c.66,2.19,2.31,3.92,3.61,5.82a13.69,13.69,0,0,1,.81,1.94,5.21,5.21,0,0,0,.87,1.42,5.35,5.35,0,0,1,1.73,4.77c-.41,2.57-.89,5.09-2.36,7.17a8.11,8.11,0,0,1-.64.82c-.91,1-1.78,2-2.76,2.94-1.43,1.35-2.9,2.67-4.44,3.91s-3,2.25-4.58,3.32-3.38,2.26-5.09,3.37a2.81,2.81,0,0,1-.87.31c-2.47.59-4.7,1.48-6.18,3.5a7.48,7.48,0,0,1-1.93,1.34c-2.23,1.54-4.49,3-6.68,4.63a16,16,0,0,1-3.53,1.89c-1.13.45-2.41.92-3,2.17-.16.34-.59.53-.9.78l-1.26,1a8.33,8.33,0,0,1-.77.71c-1.54,1-3.11,1.93-4.63,2.92-1,.67-2,1.43-3,2.1-1.27.84-2.58,1.62-3.87,2.43L363.23,324a5.67,5.67,0,0,1-.72.53,5.5,5.5,0,0,0-2.86,2.76c-.22.46-.94.63-1.44.91a3.82,3.82,0,0,0-.72.36c-1.08,1-2.13,2-3.2,3.08a8.83,8.83,0,0,1-.91.8l-3,2.11c-.09.06-.16.18-.26.19-1.8.21-2.49,1.72-3.61,2.72s-2.34,2.29-3.56,3.39a18.21,18.21,0,0,1-1.63,1.07c-.53.38-1,.85-1.53,1.21a30.56,30.56,0,0,1-3,1.87,1.87,1.87,0,0,1-1.88-.41c-1.41-1-1.84-.81-2.28.58a4,4,0,0,1-1.07,1.37c-.41.43-1,.73-1.28,1.21a2.81,2.81,0,0,0-.5,1.75,3.6,3.6,0,0,1-.71,2.75c-.28.37-1,.46-1.52.57a2.27,2.27,0,0,0-1.65,3c.32.94-.24,1.52-1.21,1.41a1.67,1.67,0,0,0-1.21.32c-.6.55-1.06,1.25-1.62,1.85a.76.76,0,0,0-.19,1.06l0,.05c.4.67.31,1-.47,1.42a5.55,5.55,0,0,0-1.68,2.07c-.07.1.29.67.54.8a5,5,0,0,0,1.59.51c2.83.36,5.67.81,8.47,1,2.58.14,5.13,0,7.69-.1q2.56-.06,5.1-.21c2.52-.15,5-.33,7.54-.51l4.17-.31a1.36,1.36,0,0,0,.43,0c1.89-.85,4-.85,6.18-1a19.43,19.43,0,0,0,6-1.22,6.24,6.24,0,0,1,1.19-.16c.7-.11,1.4-.24,2.1-.38a4.53,4.53,0,0,1,1.15-.28,13.3,13.3,0,0,0,4.82-1,5.33,5.33,0,0,1,2.33,0,6.74,6.74,0,0,0,3.86-.55c1.46-.53,3-.89,4.52-1.33.45-.13.89-.31,1.33-.47a25.29,25.29,0,0,1,3-1.09c1.15-.27,1.55-.87,1-2a10.37,10.37,0,0,0-.9-1.65c-1.25-1.81-1.43-3.71-1.69-5.64a9.13,9.13,0,0,0-.88-2.37,3.23,3.23,0,0,1,.27-3.11,1.34,1.34,0,0,0,0-1.36,2.48,2.48,0,0,1-.29-1.6c.63-1.59.1-3.36.09-5s-.41-3.73,1.22-4.89a.42.42,0,0,0,.15-.36,5.63,5.63,0,0,1,.68-3.31,19.65,19.65,0,0,1,4.51-6.85,23.75,23.75,0,0,1,6.44-4.4.3.3,0,0,0,.22-.11c.68-1.2,2-1.56,3.18-2.15,1.62-.81,3.07-1.88,4.66-2.73A22.91,22.91,0,0,1,413,309c1.77-.66,3.53-1.36,5.32-2,1.19-.42,2.41-.75,3.63-1.1,1.06-.31,2.11-.63,3.19-.87,1.25-.29,2.51-.54,3.79-.74,1.48-.22,3-.4,4.5-.52a27.84,27.84,0,0,1,8.76.57c2.19.52,4.36,1.26,6.54,1.89a2.85,2.85,0,0,0,.72.16c3.41,0,5.64,2.42,7.74,4.79a67.44,67.44,0,0,1,5.13,6.66,39.91,39.91,0,0,1,2.3,4.5,19.13,19.13,0,0,1,2.17,6.29,2.29,2.29,0,0,1,.07.53c-.2,1.53-.4,3.07-.65,4.59a7.17,7.17,0,0,1-.54,2A20.07,20.07,0,0,1,464.3,338a16.55,16.55,0,0,1-1.19,1.59c-.79.91-1.63,1.78-2.44,2.68-.52.58-1,1.16-1.53,1.75a12.58,12.58,0,0,1-.87,1,39.44,39.44,0,0,0-3.72,3.51,13.35,13.35,0,0,1-1.78,1.89c-1.16,1-2.1,2.25-3.44,2.91a11.35,11.35,0,0,0-2.32,1.91c-1.46,1.23-3.12,2.24-4.69,3.34a1.45,1.45,0,0,0-.33.24c-.8,1-1.8,1.24-3.16.31a.89.89,0,0,0-.89.14,4.63,4.63,0,0,0-.78,1.64c-.22,1-1,1.27-1.85,1.41a1.77,1.77,0,0,0-1.41,1,.81.81,0,0,0,.77,1.23c2.2-.19,4.57.35,6.65-.35a5.15,5.15,0,0,1,1.54-.17,9,9,0,0,0,4.38-.69,11.57,11.57,0,0,1,2.82-.64c2.58-.59,5.15-1.22,7.75-1.79,1.36-.3,2.78-.45,4.11-.8a29.79,29.79,0,0,0,3.17-1.2,3.3,3.3,0,0,1,.84-.36c2.59-.24,4.64-1.58,7-2.26a1.55,1.55,0,0,1,.67-.12c1.46.26,2.53-.46,3.78-.75a5.83,5.83,0,0,1,1.41,0,6.31,6.31,0,0,1,1.22.08,2,2,0,0,1,1,.24.92.92,0,0,1,.07.87,3.22,3.22,0,0,0-.48,2.15,1.34,1.34,0,0,1-.28.76,23.46,23.46,0,0,1-1.86,3.11,7.77,7.77,0,0,1-2.07,1.52c-.81.5-1.71.88-2.5,1.4-.38.26-.54.79-.9,1.09a15.9,15.9,0,0,1-2.48,1.8c-.91.49-2,.72-2.94,1.17s-1.46,1-2.23,1.36c-1,.54-2.09,1-3.11,1.51a2,2,0,0,0-.9.66,5.31,5.31,0,0,1-3.31,2.27,49.83,49.83,0,0,0-6.52,3.06q-1.61.78-3.27,1.44a35.83,35.83,0,0,1-4.11,1.43,18.54,18.54,0,0,1-3.49.42c-1.16.07-2.35,0-3.54,0a18.68,18.68,0,0,1-2-.2c-.45,0-.9-.16-1.34-.18q-1.46-.07-2.91-.08a20,20,0,0,1-2.19,0,18.08,18.08,0,0,1-1.93-.25,8.62,8.62,0,0,0-1.42-.24c-1.9,0-3.69-1-5.53-1.42a27.48,27.48,0,0,1-8-3.71,12.7,12.7,0,0,0-3.22-1.23,3.27,3.27,0,0,0-1.42.19c-.31.06-.6.27-.9.22-1.36-.27-2.22.44-3.12,1a13.23,13.23,0,0,1-7.22,1.85,9.17,9.17,0,0,0-5,1.5,7.69,7.69,0,0,1-4.43,1.57c-1.54-.11-2.73.45-4.14.48a12,12,0,0,0-2.79.89c-1.39.38-2.79.72-4.21,1a2.72,2.72,0,0,1-1.25-.12,5.07,5.07,0,0,0-3.75.26,9.44,9.44,0,0,1-2.06.45,10.15,10.15,0,0,0-2.55.55,5,5,0,0,1-2.74.51,9.07,9.07,0,0,0-4.75,1,5.32,5.32,0,0,0-1.43,1.17,1,1,0,0,1-1.65,0c-1.17-1.22-2.93-1.58-3.82,0-.42.75-1.18.83-2.13.83a6.38,6.38,0,0,1-3.38-1,1.19,1.19,0,0,0-1.67.13c-.58.66-1.29.65-2.23.3a4.09,4.09,0,0,0-1.92-.12c-3.12.42-6.14,1.19-9.53.45-2.46-.53-4.93-.8-7.38-1.42-1.44-.37-2.82-1.31-4.26-1.81-3-1-5.51-3-8.08-4.83a24.56,24.56,0,0,0-2.81-1.37,5.56,5.56,0,0,1-1.46-1.11,33.23,33.23,0,0,0-5-5,17.07,17.07,0,0,1-3.06-3.39c-1.29-1.65-2.45-3.38-3.72-5-.79-1-1.72-2-2.55-3a8.06,8.06,0,0,1-1.77-6,40.14,40.14,0,0,1,.91-4.51,8.7,8.7,0,0,1,.2-1.81c.76-1.67,1.65-3.27,2.48-4.91.21-.41.33-.87.54-1.28a2.15,2.15,0,0,1,.62-.92A4.18,4.18,0,0,0,297,339a20.55,20.55,0,0,1,2.66-4.73c.81-1.09,1.81-1.93,2.69-2.91,1.16-1.3,2.12-2.78,3.24-4.13.87-1,1.83-2,2.75-3a1,1,0,0,1,.4-.28c1.61-.59,2.39-2,3.47-3.15a15.14,15.14,0,0,0,1.53-2.34,1.15,1.15,0,0,1,.32-.37,5.2,5.2,0,0,1,5-.77,2,2,0,0,0,.89.19c.24,0,.57-.24.58-.42a1.18,1.18,0,0,0-.41-.81c-.92-.69-1-1.38-.12-1.8a9.55,9.55,0,0,1,2.78-.67c1.45-.17,1.7-.38,1.56-1.85a1.61,1.61,0,0,1,.59-1.63,4.71,4.71,0,0,0,.82-1,3.44,3.44,0,0,1,1.6-1.15c.75-.28,1.65-.67,1.65-1.8,0-.65,2-1.77,2.7-1.61a.91.91,0,0,0,1.22-1,2.1,2.1,0,0,1,1.54-2.41,3.07,3.07,0,0,0,2-1.62c.17-.4.92-.61,1.47-.67a2.74,2.74,0,0,0,1.89-.8c.92-.94,1.57-2.28,3.07-2.51a13.1,13.1,0,0,1,3.08,0c.66.06.74-.24.66-.74s-.28-.86-.19-1.19.51-.43.78-.63a2.63,2.63,0,0,1,.35.81c0,.7.28.92,1,.93,1.21,0,1.63-.7,2.24-1.47.88-1.11.71-2.26.37-3.61a1.11,1.11,0,0,1,.66-1c.9-.44,2-.58,2.37-1.68a.63.63,0,0,1,.37-.31A11.31,11.31,0,0,0,358,284.1a1.8,1.8,0,0,1,1.37-.17c.6.11.89,0,1-.54a3.12,3.12,0,0,1,1.74-2.16,35.42,35.42,0,0,0,4.26-3c.87-.61,1.83-1.09,2.71-1.68,1.06-.71,2.08-1.47,3.1-2.22a.42.42,0,0,0,.11-.43.85.85,0,0,0-.5-.35,22.73,22.73,0,0,0-4.26-.17,37.61,37.61,0,0,1-5.22.39c-1.73,0-3.41.33-5.11.48l-11.69,1c-1.74.14-3.49.27-5.23.42a4.79,4.79,0,0,0-.91.23c-1.11.32-2.21.66-3.32,1-.55.15-1,.28-.68,1.1s-.21,1-1.22.56l.35-.89c-1.06-.82-2.07-.85-2.67.06Zm78.76,71.26a1.77,1.77,0,0,0,.34.6c.1.09.4,0,.59-.1q1.28-.41,2.55-.85a2.23,2.23,0,0,0,.81-.37,12.76,12.76,0,0,1,4.63-2.54,7.26,7.26,0,0,0,2.19-1.2,42.21,42.21,0,0,1,4.23-2.54c.56-.37,1.36-.44,1.88-.84q2.66-2,5.19-4.22c2.78-2.4,5.59-4.78,7.49-8,.22-.37.67-.75.14-1.17a1.64,1.64,0,0,0-1.27-.08c-1.66.51-3.27,1.15-5,1.64a41,41,0,0,0-4,1,32.77,32.77,0,0,0-5.36,2.4,37.92,37.92,0,0,0-4.59,3.44,2,2,0,0,0-.72,1.32c0,.85-.5,1.14-1.21,1.3a1.19,1.19,0,0,0-.59.25c-.66.73-1.26,1.52-2,2.22a9.79,9.79,0,0,1-1.16.74,9.43,9.43,0,0,0-1.16,1c-.24.25-.35.61-.59.86-1.22,1.25-1.68,3-2.35,4.53a3,3,0,0,0-.09.61Zm-55.25-62.23a1.29,1.29,0,0,0,1.7-.33c.12-.16-.1-.57-.16-.87-.27,0-.62,0-.8.17A5.48,5.48,0,0,0,357.69,287.45Zm-27.34-10.52v-.28a4.56,4.56,0,0,0-.93-.35c-.17,0-.34.17-.51.26a6.4,6.4,0,0,0,1,.57c.09.06.27-.13.44-.21Zm6.55,24.59-.07.43,1.11.41a2.55,2.55,0,0,0,0-.5,7.91,7.91,0,0,0-1-.34Z"/><path class="cls-1" d="M465.06,257.93c1.5-.08,3-.14,4.5-.26a1.88,1.88,0,0,0,.89-.42,4.19,4.19,0,0,1,3.47-.73,3.63,3.63,0,0,0,3.28-.57,2.7,2.7,0,0,1,2.07-.47,31.47,31.47,0,0,0,8-.59c.19,0,.45-.17.58-.08,1,.66,1.63.07,2.45-.13a15.79,15.79,0,0,1,3.34-.1c1.74,0,3.47-.05,5.22-.06a7.63,7.63,0,0,1,1.69.14,1.56,1.56,0,0,1,.77.62c.32.47.52,1,.81,1.47a.57.57,0,0,1-.4,1c-.85.16-1.35.45-1.38,1.48,0,.67-.65,1.22-1,1.81-.26.39-.55.75-.16,1.32,0,.07.1.22.07.25-.69.69-.41,2-1.39,2.51-1.21.67-2.59,1.17-3,2.69-.08.29-.48.43-.67.68s-.49.57-.48.89c0,.74-.32,1-.94,1.23-1.64.62-3.21,1.36-4.83,2a5.31,5.31,0,0,1-1.77.52,3.79,3.79,0,0,0-2.79,1.7,5.53,5.53,0,0,1-1.25,1,10.36,10.36,0,0,0-1.92,1.08,19.59,19.59,0,0,1-7.48,4.18,55.63,55.63,0,0,0-5.79,2.46A17.84,17.84,0,0,0,463,286a2.26,2.26,0,0,0-.93,2.17c.11.78-.28,1.11-1.12,1.06a7.92,7.92,0,0,0-3.35.29,2.81,2.81,0,0,1-3-.69c-2.17-2-4.62-3.81-6.69-5.93a44,44,0,0,1-3.84-5.19c-.22-.31-.41-.64-.65-.94-1.47-1.8-2.93-3.59-4.42-5.37a4,4,0,0,1-.89-2.22,7.44,7.44,0,0,1,.21-2.83.8.8,0,0,1,.18-.54c.87-.78,1.78-1.54,2.67-2.31.22-.19.56-.35.61-.6.19-1,1-1.17,1.83-1.27,1.07-.12,2.15-.18,3.23-.26a1.5,1.5,0,0,0,.51-.09,11.53,11.53,0,0,1,4.41-.66,3.88,3.88,0,0,0,.66-.15,12.24,12.24,0,0,1,2.38-.52,6.53,6.53,0,0,0,2.82-.49,5.94,5.94,0,0,1,2.13-.3c.89-.06,1.77-.1,2.29-.84a.44.44,0,0,1,.28-.16l2.75-.34Z"/></g></svg>